<svg xmlns="http://www.w3.org/2000/svg" width="1024" height="1024" viewBox="0 0 1024 1024"><title>logo</title><polygon fill="#1ae2e1" points="416 617.14 288 672 288 960 512 720 416 617.14"/><polygon fill="#ffb5d6" points="736 480 512 576 608 617.14 736 480"/><polygon fill="#fbdb88" points="512 720 608 617.14 512 576 416 617.14 512 720"/><polygon fill="#45378e" points="608 617.14 736 672 736 960 512 720 608 617.14"/><polygon fill="#45378e" points="288 480 512 576 416 617.14 288 480"/><polygon fill="#1ae2e1" points="512 64 512 320 736 416 512 64"/><polygon fill="#ffb5d6" points="512 64 512 320 288 416 512 64"/><polygon fill="#45378e" points="512 512 512 320 736 416 512 512"/><polygon fill="#fbdb88" points="512 512 512 320 288 416 512 512"/><polygon fill="#fbdb88" points="512 896 548.95 832 475.05 832 512 896"/><polygon fill="#ffb5d6" points="564.98 961 585.95 924.67 544 924.67 564.98 961"/><g opacity=".1"><polygon points="416 617.14 288 960 288 960 512 720 416 617.14"/></g><polygon points="608 617.14 736 960 736 960 512 720 608 617.14" opacity=".1"/></svg>